<svg width="396" height="280" viewBox="0 0 396 280" fill="none" xmlns="http://www.w3.org/2000/svg">
<g clip-path="url(#clip0_48_506)">
<g clip-path="url(#clip1_48_506)">
<g clip-path="url(#clip2_48_506)">
<g clip-path="url(#clip3_48_506)">
<g clip-path="url(#clip4_48_506)">
<g clip-path="url(#clip5_48_506)">
<path d="M263.757 142.933C263.757 124.057 255.409 107.103 242.224 95.5359C230.657 82.3513 213.703 74.0034 194.827 74.0034C160.054 74.0034 131.763 102.294 131.763 137.067C131.763 155.939 140.108 172.89 153.289 184.457C164.856 197.646 181.812 205.997 200.693 205.997C200.816 205.997 200.937 205.988 201.06 205.988C201.183 205.988 201.303 205.997 201.426 205.997C235.85 205.997 263.757 178.09 263.757 143.667C263.757 143.543 263.748 143.423 263.748 143.3C263.748 143.177 263.757 143.056 263.757 142.933ZM156.443 174.276C150.217 165.508 146.514 154.83 146.438 143.3C146.636 113.219 170.977 88.8761 201.06 88.6781C212.59 88.7544 223.27 92.4575 232.036 98.6832C242.086 108.429 248.357 122.046 248.357 137.067C248.357 166.584 224.343 190.597 194.827 190.597C179.806 190.597 166.189 184.326 156.443 174.276ZM133.23 137.067C133.23 103.102 160.862 75.47 194.827 75.47C209.284 75.47 222.584 80.4887 233.105 88.86C223.626 83.1579 212.537 79.8698 200.693 79.8698C165.92 79.8698 137.63 108.16 137.63 142.933C137.63 154.775 140.916 165.86 146.616 175.338C138.247 164.819 133.23 151.522 133.23 137.067ZM200.693 197.197C185.91 197.197 172.495 191.25 162.701 181.629C171.756 188.183 182.856 192.064 194.827 192.064C225.153 192.064 249.824 167.393 249.824 137.067C249.824 125.097 245.943 113.996 239.389 104.941C249.01 114.735 254.957 128.15 254.957 142.933C254.957 172.855 230.615 197.197 200.693 197.197Z" fill="#F3A83C"/>
</g>
</g>
<path d="M68.047 182.586L94.561 172.363L96.664 177.816L81.016 191.13C80.125 191.887 78.954 192.797 77.505 193.862L77.562 194.011C79.541 193.783 81.015 193.66 81.985 193.642L102.534 193.042L104.619 198.449L78.105 208.672L76.691 205.005L94.197 198.255L99.176 196.421L99.072 196.151C97.939 196.353 97.004 196.46 96.268 196.473L73.591 196.964L72.414 193.912L89.593 179.164C90.054 178.751 90.819 178.203 91.889 177.52L91.799 177.287L86.88 179.28L69.375 186.029L68.047 182.586ZM118.194 253.779L133.616 229.912L151.988 241.784L150.12 244.674L135.058 234.941L130.316 242.279L143.845 251.022L141.977 253.912L128.448 245.169L123.37 253.027L138.642 262.896L136.775 265.786L118.194 253.779ZM191.287 280L201.068 251.133L206.07 250.917L218.311 278.829L214.136 279.01L210.948 271.561L197.785 272.131L195.342 279.824L191.287 280ZM198.921 268.637L209.514 268.179L205.822 259.473L203.696 254.424L203.487 254.433L201.842 259.556L198.921 268.637ZM271.39 259.019L255.186 235.676L258.422 233.429L272.664 253.945L284.643 245.629L286.606 248.456L271.39 259.019ZM325.985 192.858C324.695 196.059 323.001 198.412 320.902 199.918C318.81 201.426 316.404 201.632 313.685 200.535L312.932 200.189L314.386 196.581C314.724 196.774 314.982 196.907 315.161 196.979C316.728 197.611 318.175 197.445 319.502 196.482C320.826 195.51 321.922 193.948 322.789 191.795C323.759 189.39 324.126 187.395 323.891 185.808C323.65 184.22 322.826 183.142 321.42 182.575C320.47 182.192 319.549 182.209 318.658 182.623C317.76 183.036 316.929 183.676 316.163 184.543C315.398 185.41 314.45 186.616 313.318 188.16C311.926 190.065 310.717 191.571 309.69 192.677C308.664 193.783 307.472 194.596 306.115 195.118C304.755 195.645 303.267 195.583 301.651 194.931C299.351 194.004 297.984 192.335 297.551 189.923C297.122 187.52 297.511 184.82 298.72 181.823C299.928 178.826 301.516 176.638 303.485 175.259C305.459 173.883 307.701 173.7 310.211 174.712L310.674 174.899L309.234 178.469L308.651 178.235C307.344 177.707 306.08 177.89 304.86 178.782C303.641 179.674 302.648 181.069 301.882 182.969C301.066 184.992 300.719 186.734 300.84 188.195C300.967 189.658 301.644 190.637 302.871 191.132C303.772 191.495 304.634 191.463 305.459 191.035C306.284 190.608 307.061 189.986 307.792 189.169C308.525 188.346 309.456 187.166 310.586 185.628C311.98 183.717 313.204 182.192 314.258 181.054C315.312 179.916 316.521 179.077 317.886 178.537C319.248 178.004 320.724 178.058 322.315 178.699C325.134 179.835 326.787 181.638 327.276 184.108C327.768 186.586 327.338 189.503 325.985 192.858Z" fill="#F3A83C"/>
<path d="M88.265 111.09L62.188 101.092L64.245 95.727L84.422 96.317C85.57 96.352 87.028 96.458 88.796 96.638L88.854 96.489C87.254 95.349 86.094 94.466 85.372 93.84L69.987 80.752L72.03 75.425L98.106 85.424L96.721 89.037L79.501 82.434L74.668 80.496L74.565 80.766C75.525 81.362 76.278 81.897 76.824 82.369L93.689 96.944L92.536 99.952L70.292 99.403C69.682 99.397 68.765 99.291 67.541 99.085L67.455 99.308L72.345 101.098L89.565 107.7L88.265 111.09ZM129.968 50.248L114.778 26.813L132.823 15.116L134.662 17.953L119.864 27.545L124.535 34.751L137.826 26.136L139.666 28.973L126.375 37.589L131.377 45.305L146.375 35.583L148.214 38.42L129.968 50.248ZM190.581 27.442L202.581 0L207.504 0.21L217.138 28.573L213.033 28.398L210.539 20.834L197.605 20.284L194.567 27.612L190.581 27.442ZM199.014 16.959L209.418 17.402L206.539 8.564L204.88 3.442L204.681 3.434L202.636 8.318L199.014 16.959ZM259.327 44.695L275.272 21.767L278.45 23.977L264.434 44.129L276.201 52.312L274.271 55.088L259.327 44.695ZM305.209 101.647C303.948 98.499 303.547 95.676 304.008 93.177C304.471 90.685 306.039 88.904 308.711 87.833L309.476 87.57L310.9 91.125C310.529 91.217 310.257 91.297 310.084 91.367C308.547 91.982 307.635 93.085 307.348 94.676C307.067 96.264 307.351 98.117 308.199 100.234C309.146 102.598 310.242 104.261 311.487 105.224C312.735 106.192 314.053 106.399 315.442 105.842C316.374 105.469 317.016 104.828 317.369 103.921C317.724 103.019 317.879 102.001 317.833 100.866C317.786 99.731 317.64 98.232 317.395 96.367C317.084 94.071 316.917 92.179 316.894 90.691C316.873 89.209 317.166 87.82 317.772 86.525C318.377 85.229 319.473 84.264 321.059 83.628C323.325 82.721 325.43 82.977 327.374 84.397C329.316 85.812 330.876 87.991 332.056 90.935C333.238 93.886 333.598 96.52 333.138 98.839C332.677 101.159 331.212 102.813 328.743 103.802L328.29 103.984L326.88 100.465L327.445 100.239C328.735 99.722 329.509 98.731 329.768 97.267C330.026 95.802 329.782 94.138 329.036 92.274C328.239 90.286 327.299 88.815 326.214 87.86C325.13 86.905 323.986 86.668 322.782 87.15C321.899 87.504 321.309 88.113 321.01 88.977C320.712 89.842 320.582 90.814 320.621 91.895C320.662 92.981 320.804 94.454 321.047 96.312C321.361 98.615 321.529 100.528 321.552 102.051C321.581 103.573 321.293 104.989 320.686 106.299C320.085 107.607 319.004 108.574 317.442 109.199C314.671 110.309 312.27 110.154 310.239 108.732C308.208 107.311 306.532 104.949 305.209 101.647Z" fill="#F3A83C"/>
<path d="M61.228 142.935C61.228 136.94 66.088 132.08 72.083 132.08C78.078 132.08 82.938 136.94 82.938 142.935C82.938 148.93 78.078 153.79 72.083 153.79C66.088 153.79 61.228 148.93 61.228 142.935ZM312.582 142.935C312.582 136.94 317.442 132.08 323.437 132.08C329.432 132.08 334.292 136.94 334.292 142.935C334.292 148.93 329.432 153.79 323.437 153.79C317.442 153.79 312.582 148.93 312.582 142.935Z" fill="#F3A83C"/>
</g>
</g>
</g>
</g>
<defs>
<clipPath id="clip0_48_506">
<rect width="395.52" height="280" fill="white"/>
</clipPath>
<clipPath id="clip1_48_506">
<rect width="395.52" height="280" fill="white"/>
</clipPath>
<clipPath id="clip2_48_506">
<rect width="395.52" height="280" fill="white"/>
</clipPath>
<clipPath id="clip3_48_506">
<rect width="395.52" height="280" fill="white"/>
</clipPath>
<clipPath id="clip4_48_506">
<rect width="131.993" height="131.993" fill="white" transform="translate(131.763 74.0034)"/>
</clipPath>
<clipPath id="clip5_48_506">
<rect width="131.993" height="131.993" fill="white" transform="translate(131.763 74.0034)"/>
</clipPath>
</defs>
</svg>
